<svg xmlns="http://www.w3.org/2000/svg" version="1.1" xmlns:xlink="http://www.w3.org/1999/xlink" xmlns:svgjs="http://svgjs.com/svgjs" width="488" height="488"><svg width="488" height="488" viewBox="0 0 488 488" fill="none" xmlns="http://www.w3.org/2000/svg">
<g clip-path="url(#clip0_27_2)">
<path d="M242.044 0H0.0123479L50.9338 50.377H242.044C293.795 50.377 343.425 70.7717 380.019 107.074C416.612 143.377 437.171 192.615 437.171 243.954C437.171 295.294 416.612 344.532 380.019 380.834C343.425 417.136 293.795 437.533 242.044 437.533H122.743L169.333 391.378H242.078C281.479 391.378 319.266 375.851 347.125 348.211C374.988 320.571 390.641 283.084 390.641 243.996C390.641 204.907 374.988 167.42 347.125 139.781C319.266 112.141 281.479 96.6135 242.078 96.6135H97.4364L213.624 211.797H242.044C250.637 211.797 258.878 215.183 264.954 221.211C271.03 227.238 274.443 235.414 274.443 243.938C274.443 252.462 271.03 260.638 264.954 266.665C258.878 272.693 250.637 276.079 242.044 276.079H213.711L161.689 327.71H242.044C253.126 327.71 264.099 325.544 274.337 321.337C284.575 317.13 293.877 310.964 301.713 303.19C309.549 295.417 315.764 286.188 320.005 276.032C324.246 265.875 326.429 254.989 326.429 243.996C326.429 233.002 324.246 222.116 320.005 211.96C315.764 201.803 309.549 192.574 301.713 184.801C293.877 177.027 284.575 170.861 274.337 166.654C264.099 162.447 253.126 160.282 242.044 160.282H233.511L221.335 148.182H221.651L242.044 148.129C267.672 148.129 292.25 158.228 310.371 176.206C328.492 194.183 338.672 218.566 338.672 243.99C338.672 269.413 328.492 293.796 310.371 311.773C292.25 329.751 267.672 339.851 242.044 339.851H149.389L0.066389 488H242.044C307.276 488 369.837 462.292 415.963 416.532C462.089 370.772 488 308.709 488 243.996C488 179.282 462.089 117.218 415.963 71.4589C369.837 25.6992 307.276 0 242.044 0Z" fill="#171717"></path>
<path d="M176.537 243.976L0 68.8438V419.143L176.537 243.976Z" fill="#171717"></path>
</g>
<defs>
<clipPath id="SvgjsClipPath1000">
<rect width="488" height="488" fill="white"></rect>
</clipPath>
</defs>
</svg><style>@media (prefers-color-scheme: light) { :root { filter: none; } }
@media (prefers-color-scheme: dark) { :root { filter: contrast(0.3846153846153846) brightness(4.5); } }
</style></svg>