
<svg width="200" height="200" fill="none" xmlns="http://www.w3.org/2000/svg"><g clip-path="url(#a)" fill="#222831"><path d="M99.199 0H.005l20.87 20.646h78.324c21.209 0 41.549 8.359 56.547 23.237 14.997 14.878 23.423 35.058 23.423 56.098 0 21.041-8.426 41.221-23.423 56.099-14.998 14.877-35.338 23.237-56.547 23.237H50.305l19.094-18.916h29.814c16.147 0 31.634-6.364 43.052-17.692 11.419-11.327 17.834-26.691 17.834-42.71 0-16.02-6.415-31.384-17.834-42.712-11.418-11.328-26.905-17.691-43.052-17.691h-59.28l47.618 47.206h11.648c3.521 0 6.899 1.388 9.389 3.858a13.12 13.12 0 0 1 3.889 9.315 13.12 13.12 0 0 1-3.889 9.314 13.334 13.334 0 0 1-9.39 3.858H87.588l-21.32 21.16h32.932a34.81 34.81 0 0 0 13.234-2.612 34.594 34.594 0 0 0 11.22-7.437 34.277 34.277 0 0 0 7.497-11.13 34.075 34.075 0 0 0 2.633-13.13 34.07 34.07 0 0 0-2.633-13.13 34.28 34.28 0 0 0-7.497-11.13 34.596 34.596 0 0 0-11.22-7.437 34.824 34.824 0 0 0-13.234-2.612H95.7l-4.99-4.959h.13l8.358-.021c10.503 0 20.576 4.138 28.002 11.507 7.427 7.367 11.599 17.36 11.599 27.78 0 10.419-4.172 20.412-11.599 27.78-7.426 7.368-17.499 11.507-28.002 11.507H61.225L.027 200H99.2c26.734 0 52.374-10.536 71.278-29.29C189.381 151.956 200 126.52 200 99.998c0-26.522-10.619-51.958-29.523-70.712C151.573 10.532 125.933 0 99.199 0Z"/><path d="M72.351 99.99 0 28.215V171.78l72.351-71.79Z"/></g><defs><clipPath id="a"><path fill="#222831" d="M0 0h200v200H0z"/></clipPath></defs></svg>